<svg height="512pt" viewBox="-57 0 512 512.001" width="512pt" xmlns="http://www.w3.org/2000/svg"><path d="m338.734375 109.917969c.257813-2.84375.398437-5.71875.398437-8.628907 0-51.800781-41.992187-93.792968-93.792968-93.792968-44.5 0-81.757813 30.984375-91.382813 72.558594-4.828125-2.769532-10.414062-4.363282-16.382812-4.363282-15.671875 0-28.78125 10.941406-32.132813 25.597656h-7.839844c-49.558593 0-90.109374 40.550782-90.109374 90.109376 0 49.558593 40.550781 90.109374 90.109374 90.109374h202.777344c49.558594 0 90.109375-40.550781 90.109375-90.109374 0-35.863282-21.238281-67.003907-51.753906-81.480469zm0 0" fill="#91bcee"/><path d="m126.058594 77.765625c1.707031.636719 3.351562 1.394531 4.914062 2.289063.300782-1.304688.632813-2.597657.988282-3.882813-2.039063.347656-4.011719.890625-5.902344 1.59375zm0 0" fill="#4890e3"/><path d="m338.734375 109.917969c.257813-2.84375.398437-5.71875.398437-8.628907 0-51.800781-41.992187-93.792968-93.792968-93.792968-3.878906 0-7.695313.25-11.453125.707031 46.359375 5.683594 82.261719 45.191406 82.261719 93.085937 0 2.910157-.140626 5.785157-.398438 8.628907 30.515625 14.476562 51.753906 45.617187 51.753906 81.480469 0 49.558593-40.546875 90.109374-90.109375 90.109374h22.988281c49.558594 0 90.109376-40.550781 90.109376-90.109374-.003907-35.863282-21.242188-67.003907-51.757813-81.480469zm0 0" fill="#4890e3"/><path d="m58.117188 208.632812h290.222656v115.226563h-290.222656zm0 0" fill="#fff4f1"/><path d="m325.351562 208.632812h22.988282v115.226563h-22.988282zm0 0" fill="#ecedef"/><path d="m223.015625 480.480469c0 13.269531-10.757813 24.023437-24.023437 24.023437-13.269532 0-24.023438-10.753906-24.023438-24.023437 0-13.265625 10.753906-24.019531 24.023438-24.019531 13.265624 0 24.023437 10.753906 24.023437 24.019531zm0 0" fill="#f45a3c"/><path d="m198.992188 456.460938c-3.566407 0-6.949219.78125-9.992188 2.175781 8.273438 3.792969 14.027344 12.144531 14.027344 21.84375 0 9.703125-5.753906 18.054687-14.027344 21.847656 3.042969 1.394531 6.425781 2.175781 9.992188 2.175781 13.269531 0 24.023437-10.753906 24.023437-24.023437 0-13.265625-10.757813-24.019531-24.023437-24.019531zm0 0" fill="#e24a2a"/><path d="m397.984375 191.398438c0-35.753907-20.03125-68.933594-51.445313-85.921876.058594-1.410156.089844-2.808593.089844-4.1875 0-55.851562-45.4375-101.289062-101.289062-101.289062-23.027344 0-45.566406 7.9375-63.46875 22.347656-15.320313 12.332032-26.773438 28.96875-32.839844 47.507813-3.707031-1.09375-7.566406-1.660157-11.457031-1.660157-16.929688 0-31.652344 10.265626-37.644531 25.601563h-2.328126c-34.898437 0-67.398437 18.949219-84.820312 49.457031-2.054688 3.59375-.804688 8.171875 2.789062 10.226563 3.59375 2.050781 8.175782.800781 10.226563-2.792969 14.761719-25.84375 42.277344-41.902344 71.804687-41.902344h7.84375c3.496094 0 6.527344-2.417968 7.304688-5.824218 2.660156-11.640626 12.871094-19.773438 24.824219-19.773438 4.4375 0 8.8125 1.167969 12.652343 3.371094 2.058594 1.179687 4.554688 1.316406 6.726563.371094 2.175781-.949219 3.773437-2.871094 4.308594-5.183594 4.324219-18.675782 14.980469-35.621094 30.011719-47.71875 15.464843-12.453125 34.164062-19.035156 54.066406-19.035156 47.582031 0 86.296875 38.710937 86.296875 86.296874 0 2.597657-.125 5.269532-.367188 7.949219-.285156 3.128907 1.414063 6.105469 4.253907 7.453125 28.835937 13.675782 47.472656 43.003906 47.472656 74.707032 0 23.570312-9.953125 45.554687-27.160156 61.113281v-43.878907c0-4.136718-3.355469-7.492187-7.496094-7.492187h-290.222656c-4.136719 0-7.492188 3.355469-7.492188 7.492187v50.582032c-21.96875-15.347656-35.632812-40.792969-35.632812-67.816406 0-3.644532.242187-7.316407.71875-10.90625.550781-4.105469-2.332032-7.875-6.4375-8.421876-4.101563-.550781-7.871094 2.335938-8.417969 6.4375-.566407 4.246094-.855469 8.585938-.855469 12.890626 0 35.316406 19.726562 68.347656 50.625 85.460937v47c0 4.136719 3.355469 7.492187 7.496094 7.492187h218.378906c4.140625 0 7.496094-3.355468 7.496094-7.492187 0-4.140625-3.355469-7.496094-7.496094-7.496094h-210.886719v-100.234375h275.230469v100.234375h-31.707031c-4.140625 0-7.496094 3.355469-7.496094 7.496094s3.355469 7.496094 7.496094 7.496094h39.203125c4.140625 0 7.496094-3.355469 7.496094-7.496094v-52.257813c26.464843-18.339843 42.148437-48.011718 42.148437-80.203124zm0 0"/><path d="m141.089844 240.644531-8.015625 22.878907-5.765625-19.367188c-.722656-2.433594-2.613282-2.703125-4.59375-2.703125-2.074219 0-3.875.269531-4.597656 2.703125l-5.765626 19.367188-8.015624-22.878907c-.539063-1.53125-2.070313-2.164062-3.871094-2.164062-3.605469 0-9.191406 2.34375-9.191406 5.585937 0 .542969.09375.992188.453124 1.890625l13.871094 34.679688c.722656 1.804687 3.0625 2.433593 5.316406 2.433593 2.703126 0 5.3125-.898437 5.855469-2.433593l5.945313-15.671875 5.945312 15.671875c.539063 1.53125 3.058594 2.433593 5.761719 2.433593 2.34375 0 4.6875-.628906 5.40625-2.433593l13.871094-34.679688c.273437-.539062.363281-1.167969.363281-1.710937 0-3.421875-5.765625-5.765625-9.191406-5.765625-1.890625 0-3.332032.8125-3.78125 2.164062zm0 0"/><path d="m154.152344 275.503906c0 3.691406 2.972656 6.9375 6.933594 6.9375 3.695312 0 6.847656-3.246094 6.847656-6.9375 0-3.78125-3.152344-6.933594-6.847656-6.933594-3.960938-.003906-6.933594 3.152344-6.933594 6.933594zm0 0"/><path d="m217.746094 240.644531-8.015625 22.878907-5.765625-19.367188c-.722656-2.433594-2.613282-2.703125-4.59375-2.703125-2.070313 0-3.875.269531-4.59375 2.703125l-5.765625 19.367188-8.015625-22.878907c-.542969-1.53125-2.074219-2.164062-3.875-2.164062-3.601563 0-9.1875 2.34375-9.1875 5.585937 0 .542969.089844.992188.449218 1.890625l13.875 34.679688c.71875 1.804687 3.0625 2.433593 5.3125 2.433593 2.703126 0 5.316407-.898437 5.855469-2.433593l5.945313-15.671875 5.945312 15.671875c.539063 1.53125 3.0625 2.433593 5.765625 2.433593 2.339844 0 4.683594-.628906 5.402344-2.433593l13.875-34.679688c.269531-.539062.359375-1.167969.359375-1.710937 0-3.421875-5.765625-5.765625-9.1875-5.765625-1.894531 0-3.335938.8125-3.785156 2.164062zm0 0"/><path d="m230.808594 275.503906c0 3.691406 2.972656 6.9375 6.9375 6.9375 3.691406 0 6.84375-3.246094 6.84375-6.9375 0-3.78125-3.152344-6.933594-6.84375-6.933594-3.964844-.003906-6.9375 3.152344-6.9375 6.933594zm0 0"/><path d="m307.015625 245.957031c.269531-.539062.359375-1.167969.359375-1.710937 0-3.421875-5.765625-5.765625-9.1875-5.765625-1.890625 0-3.332031.8125-3.78125 2.164062l-8.019531 22.878907-5.765625-19.367188c-.71875-2.433594-2.609375-2.703125-4.59375-2.703125-2.070313 0-3.875.269531-4.59375 2.703125l-5.765625 19.367188-8.015625-22.878907c-.542969-1.53125-2.070313-2.164062-3.875-2.164062-3.601563 0-9.1875 2.34375-9.1875 5.585937 0 .542969.089844.992188.449218 1.890625l13.875 34.679688c.71875 1.804687 3.0625 2.433593 5.3125 2.433593 2.703126 0 5.316407-.898437 5.855469-2.433593l5.945313-15.671875 5.945312 15.671875c.539063 1.53125 3.0625 2.433593 5.765625 2.433593 2.339844 0 4.683594-.628906 5.402344-2.433593zm0 0"/><path d="m198.992188 448.964844c-17.378907 0-31.519532 14.136718-31.519532 31.515625 0 17.382812 14.140625 31.519531 31.519532 31.519531 17.378906 0 31.515624-14.136719 31.515624-31.519531 0-17.378907-14.136718-31.515625-31.515624-31.515625zm0 48.042968c-9.113282 0-16.527344-7.414062-16.527344-16.527343s7.414062-16.527344 16.527344-16.527344c9.113281 0 16.527343 7.414063 16.527343 16.527344s-7.414062 16.527343-16.527343 16.527343zm0 0"/><path d="m198.992188 417.664062c-34.640626 0-62.820313 28.179688-62.820313 62.816407 0 4.140625 3.355469 7.496093 7.496094 7.496093s7.496093-3.355468 7.496093-7.496093c0-26.371094 21.457032-47.828125 47.828126-47.828125 26.371093 0 47.828124 21.457031 47.828124 47.828125 0 4.140625 3.355469 7.496093 7.496094 7.496093s7.492188-3.355468 7.492188-7.496093c0-34.636719-28.179688-62.816407-62.816406-62.816407zm0 0"/><path d="m198.992188 383.660156c-53.386719 0-96.820313 43.433594-96.820313 96.820313 0 4.140625 3.355469 7.496093 7.496094 7.496093 4.136719 0 7.492187-3.355468 7.492187-7.496093 0-45.121094 36.710938-81.828125 81.832032-81.828125 45.121093 0 81.828124 36.707031 81.828124 81.828125 0 4.140625 3.355469 7.496093 7.496094 7.496093s7.496094-3.355468 7.496094-7.496093c0-53.386719-43.433594-96.820313-96.820312-96.820313zm0 0"/></svg>